<?xml version="1.0" encoding="UTF-8"?>
<svg width="89px" height="59px" viewBox="0 0 89 59" version="1.1" xmlns="http://www.w3.org/2000/svg" xmlns:xlink="http://www.w3.org/1999/xlink">
    <!-- Generator: Sketch 51.3 (57544) - http://www.bohemiancoding.com/sketch -->
    <title>L</title>
    <desc>Created with Sketch.</desc>
    <defs></defs>
    <g id="Page-1" stroke="none" stroke-width="1" fill="none" fill-rule="evenodd">
        <path d="M65.89675,3.964 C59.81475,10.044 53.73575,16.124 47.65475,22.204 C45.93775,23.961 43.11675,23.978 41.37875,22.24 C35.28675,16.149 29.19475,10.056 23.10175,3.964 C17.81775,-1.321 9.24875,-1.321 3.96375,3.964 C-1.32125,9.248 -1.32125,17.816 3.96375,23.101 C14.28575,33.423 24.60775,43.745 34.92975,54.068 C40.21475,59.352 48.78275,59.352 54.06775,54.068 C64.38975,43.745 74.71175,33.423 85.03375,23.101 C90.31775,17.816 90.31775,9.248 85.03375,3.964 C82.39175,1.321 78.92775,0 75.46475,0 C72.00175,0 68.53875,1.321 65.89675,3.964" id="L" fill="#D8D8D8"></path>
    </g>
</svg>