<?xml version="1.0" encoding="UTF-8"?>
<svg width="55px" height="30px" viewBox="0 0 55 30" version="1.1" xmlns="http://www.w3.org/2000/svg" xmlns:xlink="http://www.w3.org/1999/xlink">
    <!-- Generator: Sketch 51.3 (57544) - http://www.bohemiancoding.com/sketch -->
    <title>Triangle</title>
    <desc>Created with Sketch.</desc>
    <defs></defs>
    <g id="Page-1" stroke="none" stroke-width="1" fill="none" fill-rule="evenodd">
        <path d="M22.9697669,3.234 C16.5607669,9.643 10.1507669,16.052 3.74276694,22.463 C2.74376694,23.461 -0.209233065,26.033 0.0117669352,27.964 C0.163766935,29.294 1.55876694,29.629 2.59676694,29.744 C3.73776694,29.87 4.87376694,29.827 6.01376694,29.827 L49.0127669,29.827 C50.1517669,29.827 51.2877669,29.87 52.4267669,29.744 C53.4667669,29.629 54.8627669,29.294 55.0137669,27.963 C55.2337669,26.032 52.2817669,23.461 51.2827669,22.463 C44.8737669,16.052 38.4647669,9.643 32.0557669,3.234 C29.8997669,1.078 28.7067669,0 27.5127669,0 C26.3197669,0 25.1267669,1.078 22.9697669,3.234" id="Triangle" fill="#D8D8D8"></path>
    </g>
</svg>